<?xml version="1.0" encoding="UTF-8"?>
<svg width="178px" height="195px" viewBox="0 0 178 195" version="1.1" xmlns="http://www.w3.org/2000/svg" xmlns:xlink="http://www.w3.org/1999/xlink">
    <!-- Generator: Sketch 52.6 (67491) - http://www.bohemiancoding.com/sketch -->
    <title>ic_empty_page</title>
    <desc>Created with Sketch.</desc>
    <g id="ic_empty_page" stroke="none" stroke-width="1" fill="none" fill-rule="evenodd" fill-opacity="0.5">
        <path d="M81.6574628,90 C81.8070698,91.0077037 82.0138202,92.0049507 82.2777425,92.991923 L82.2475373,93 L99,93 C101.761424,93 104,95.2385763 104,98 C104,100.761424 101.761424,103 99,103 L79,103 C76.2385763,103 74,100.761424 74,98 C74,95.2385763 76.2385763,93 79,93 L80.2145524,93 C79.9688735,92.0096988 79.7763769,91.0096499 79.6370855,90 L56,90 L56,123 L122,123 L122,90 L81.6574628,90 Z M82.923506,100 C82.6408405,99.4696819 82.3749452,98.9360822 82.1258387,98.3992072 L83.940059,97.5574206 C84.3211406,98.3787285 84.744656,99.1929125 85.210686,100 L99,100 C100.104569,100 101,99.1045695 101,98 C101,96.8954305 100.104569,96 99,96 L79,96 C77.8954305,96 77,96.8954305 77,98 C77,99.1045695 77.8954305,100 79,100 L82.923506,100 Z M125,87 L148,100 L178,146 L137,125.5 L137,195 L41,195 L41,125.5 L0,146 L30,100 L53,87 L125,87 Z M125,97 L125,123 L133.666667,123 L125,97 Z M125,126 L53,126 L44,126 L44,192 L134,192 L134,126 L125,126 Z M53,123 L53,97 L44.3333333,123 L53,123 Z M77,134 C75.3431458,134 74,135.343146 74,137 C74,138.656854 75.3431458,140 77,140 L101,140 C102.656854,140 104,138.656854 104,137 C104,135.343146 102.656854,134 101,134 L77,134 Z M77,131 L101,131 C104.313708,131 107,133.686292 107,137 C107,140.313709 104.313708,143 101,143 L77,143 C73.6862915,143 71,140.313709 71,137 C71,133.686292 73.6862915,131 77,131 Z M136.453092,121.872444 L169.439438,138.365617 L145.886859,102.251662 L126.204575,91.1268935 L136.453092,121.872444 Z M41.5469076,121.872444 L51.7954245,91.1268935 L32.1131411,102.251662 L8.56056199,138.365617 L41.5469076,121.872444 Z M92.6839411,109.191515 L91.3160589,110.65059 C90.0317893,109.446587 88.850564,108.22238 87.7725281,106.977851 L89.2842405,105.668375 C90.3161453,106.859649 91.4493304,108.034068 92.6839411,109.191515 Z M81.4783039,83.4243308 L79.4861311,83.2475607 C79.6343636,81.577003 79.9170577,79.883822 80.3338644,78.1682766 L82.2773265,78.6404577 C81.8838056,80.2601602 81.617581,81.8546983 81.4783039,83.4243308 Z M83.7608907,73.9623883 L81.9051377,73.216613 C82.581261,71.5341787 83.3672754,69.9989274 84.2607564,68.597467 L85.9471835,69.6726245 C85.1208176,70.9688123 84.3912874,72.393738 83.7608907,73.9623883 Z M88.9417524,65.9242242 L87.5240302,64.513528 C88.7451747,63.2863017 90.0827772,62.2059982 91.5582389,61.2280082 L92.6632151,62.8950498 C91.2966654,63.800849 90.0639316,64.7964561 88.9417524,65.9242242 Z M96.9098441,60.5272651 L96.0456596,58.7236063 C96.7568975,58.3828319 97.4738161,58.0567223 98.4137026,57.641791 C98.5836931,57.5667453 98.7007063,57.5152761 98.9843373,57.3907222 C99.2661943,57.2670467 99.2661943,57.2670467 99.5443271,57.1449269 C99.9921416,56.9481606 100.315692,56.8048609 100.628131,56.664367 L101.448357,58.4884368 C101.129678,58.6317362 100.801478,58.7770951 100.348872,58.9759668 C100.069644,59.0985675 100.069644,59.0985675 99.7882262,59.2220503 C99.5057831,59.3460828 99.389919,59.3970465 99.2214319,59.4714285 C98.2988746,59.8787095 97.5991928,60.1969785 96.9098441,60.5272651 Z M106.042478,55.9621271 L104.840768,54.3634114 C105.939586,53.5374603 106.660549,52.6449206 107.063671,51.5699292 C107.150787,51.3376198 107.22723,51.1052678 107.293053,50.8732244 L109.217139,51.419022 C109.136282,51.7040645 109.042669,51.9886041 108.936329,52.2721761 C108.389454,53.730509 107.428213,54.9205085 106.042478,55.9621271 Z M109.131995,45.8715523 L107.239556,46.5186042 C106.750821,45.0891972 105.790965,43.9136238 104.527625,43.1872137 L105.524556,41.4533949 C107.211075,42.4231292 108.487396,43.9862892 109.131995,45.8715523 Z M99.9841287,40.5137756 L100.314474,42.486305 C98.9596416,42.7132025 97.5639573,43.3322651 96.1885335,44.3567825 L94.9938019,42.7528447 C96.6165723,41.5440852 98.3056916,40.7948682 99.9841287,40.5137756 Z M91.3899134,46.7086782 L93.1403279,47.6761746 C92.4132211,48.9916714 92.0372156,50.4821709 92.028952,52.0424836 L90.0289801,52.0318915 C90.0389888,50.1420741 90.4980882,48.3221871 91.3899134,46.7086782 Z M91.1809229,57.3472415 L93.0055877,56.5283409 C93.6270067,57.9129795 94.5268607,59.1996558 95.6662899,60.3131981 L94.2684182,61.7435668 C92.9500981,60.4551979 91.9052746,58.9612338 91.1809229,57.3472415 Z M98.7211126,64.7905194 L99.5601866,62.9750429 C100.934392,63.6101708 102.449135,64.0574434 104.085114,64.2981147 L103.794024,66.276818 C101.970067,66.0084931 100.270697,65.5067038 98.7211126,64.7905194 Z M108.886626,66.4306034 L108.732891,64.4365208 C110.255578,64.3191281 111.84254,64.0499497 113.487441,63.6238212 L113.989004,65.5599085 C112.231851,66.015117 110.528665,66.3040092 108.886626,66.4306034 Z M118.919893,63.8394234 L118.083801,62.0225714 C119.525664,61.359045 120.913659,60.5470713 122.23604,59.5969406 L123.403044,61.2211639 C121.977917,62.2451178 120.479305,63.1218026 118.919893,63.8394234 Z M127.334806,57.8318045 L125.90441,56.4339604 C127.018322,55.2941094 128.055017,54.0481894 129.003318,52.711586 L130.63448,53.8688721 C129.626213,55.289995 128.522534,56.6164186 127.334806,57.8318045 Z M133.292981,49.4721779 L131.511701,48.5627598 C132.245575,47.1253193 132.882432,45.6283267 133.414589,44.0896177 L135.304741,44.7433195 C134.742327,46.3695142 134.069116,47.9519607 133.292981,49.4721779 Z M136.65644,39.7279058 L134.693679,39.3437558 C135.006675,37.7445489 135.206142,36.1313151 135.288688,34.5212042 L137.286065,34.6236052 C137.198641,36.3288533 136.987535,38.0362206 136.65644,39.7279058 Z M137.163771,29.4302719 L135.173726,29.6295748 C135.011374,28.008491 134.72443,26.4159281 134.312919,24.8656891 L136.245973,24.352559 C136.685046,26.0066283 136.990897,27.704129 137.163771,29.4302719 Z M134.534581,19.5476507 L132.713408,20.3742876 C132.04802,18.9083632 131.258117,17.5033937 130.34505,16.168547 L131.995807,15.0393886 C132.97466,16.4704088 133.821493,17.9766383 134.534581,19.5476507 Z M128.676975,10.9946552 L127.245653,12.3915508 C126.137746,11.2563397 124.92044,10.1956284 123.594825,9.21465937 L124.784522,7.60698353 C126.195892,8.65141185 127.494035,9.78256113 128.676975,10.9946552 Z M120.386887,4.82627754 L119.436765,6.586183 C118.0069,5.81423965 116.530902,5.1398855 115.008504,4.56300622 L115.717187,2.69277409 C117.322382,3.30102718 118.879038,4.0122331 120.386887,4.82627754 Z M110.81028,1.18978904 L110.347661,3.1355496 C108.788648,2.76488301 107.185715,2.48490309 105.538667,2.29569356 L105.766922,0.308761309 C107.492202,0.506957939 109.173386,0.800605944 110.81028,1.18978904 Z M100.614634,0.0012992407 L100.60044,2.00124887 C99.0033193,1.98991321 97.3685467,2.05574342 95.6960813,2.19884455 L95.5255783,0.206125615 C97.2587402,0.0578311136 98.9551058,-0.0104793642 100.614634,0.0012992407 Z M90.5186017,0.83988794 L90.8461034,2.81289141 C89.2655911,3.07524287 87.6541835,3.4011385 86.0118971,3.79063588 L85.5503643,1.84461751 C87.2364556,1.44473104 88.8925293,1.109802 90.5186017,0.83988794 Z M80.6322086,3.16958102 L81.2078969,5.08493553 C79.6659181,5.5484003 78.0986796,6.06412359 76.5062035,6.63213061 L75.8343013,4.74837176 C77.4582036,4.16915558 79.0574987,3.6428836 80.6322086,3.16958102 Z M71.0860512,6.5642404 L71.8406992,8.41640303 C70.3424927,9.02683459 68.8233285,9.68084148 67.2832231,10.378434 L66.458025,8.55660852 C68.0212023,7.84856555 69.5638722,7.18443939 71.0860512,6.5642404 Z M61.9826939,10.6760129 L62.8680673,12.4693656 C61.4116817,13.1883792 59.9375465,13.9444327 58.4456729,14.7375304 L57.5068641,12.9715638 C59.0162421,12.1691605 60.5081817,11.4039755 61.9826939,10.6760129 Z M51.9414643,14.8079132 L48.9324527,15.6141754 C48.6657196,15.6856464 48.5074284,15.9598148 48.5788993,16.2265479 C48.6503702,16.4932809 48.9245386,16.6515722 49.1912717,16.5801013 L53.054975,15.5448251 C53.3087988,15.4768132 53.4644235,15.2252491 53.4173047,14.9712088 C53.2809231,14.9901887 53.1416073,15 53,15 C52.6273853,15 52.2706371,14.932068 51.9414643,14.8079132 Z M55.205004,14.0342192 C55.2594335,14.1553442 55.3049016,14.2824072 55.34038,14.4148146 C55.6977346,15.7484798 54.9062784,17.1193222 53.5726131,17.4766767 L49.7089098,18.5119529 C48.3752445,18.8693075 47.0044021,18.0778512 46.6470476,16.744186 C46.3550907,15.654588 46.8299431,14.540175 47.7408076,13.9739048 C47.2795115,13.4463713 47,12.7558274 47,12 C47,10.3431458 48.3431458,9 50,9 C50.5464307,9 51.0587399,9.14609143 51.5,9.40134659 C51.9412601,9.14609143 52.4535693,9 53,9 C54.6568542,9 56,10.3431458 56,12 C56,12.7849829 55.6985086,13.4995487 55.205004,14.0342192 Z M53.722045,12.6918481 C53.8942107,12.5122158 54,12.2684621 54,12 C54,11.4477153 53.5522847,11 53,11 C52.9434818,11 52.8880587,11.0046887 52.8340984,11.0136984 C52.9415874,11.3225984 53,11.6544777 53,12 C53,12.1918473 52.981992,12.3794887 52.9475741,12.5613259 C53.2143515,12.563524 53.4754221,12.6087136 53.722045,12.6918481 Z M50.1659016,12.9863016 C50.0584126,12.6774016 50,12.3455223 50,12 C50,11.6544777 50.0584126,11.3225984 50.1659016,11.0136984 C50.1119413,11.0046887 50.0565182,11 50,11 C49.4477153,11 49,11.4477153 49,12 C49,12.5522848 49.4477153,13 50,13 C50.0565182,13 50.1119413,12.9953113 50.1659016,12.9863016 Z M132,77 C133.656854,77 135,75.6568543 135,74 C135,72.3431458 133.656854,71 132,71 C130.343146,71 129,72.3431458 129,74 C129,75.6568543 130.343146,77 132,77 Z M132,79 C129.238576,79 127,76.7614238 127,74 C127,71.2385763 129.238576,69 132,69 C134.761424,69 137,71.2385763 137,74 C137,76.7614238 134.761424,79 132,79 Z M113.5,23 C114.328427,23 115,22.3284271 115,21.5 C115,20.6715729 114.328427,20 113.5,20 C112.671573,20 112,20.6715729 112,21.5 C112,22.3284271 112.671573,23 113.5,23 Z M113.5,25 C111.567003,25 110,23.4329966 110,21.5 C110,19.5670034 111.567003,18 113.5,18 C115.432997,18 117,19.5670034 117,21.5 C117,23.4329966 115.432997,25 113.5,25 Z M45.5,55 C46.3284271,55 47,54.3284271 47,53.5 C47,52.6715729 46.3284271,52 45.5,52 C44.6715729,52 44,52.6715729 44,53.5 C44,54.3284271 44.6715729,55 45.5,55 Z M45.5,57 C43.5670034,57 42,55.4329966 42,53.5 C42,51.5670034 43.5670034,50 45.5,50 C47.4329966,50 49,51.5670034 49,53.5 C49,55.4329966 47.4329966,57 45.5,57 Z M59.5,69 C60.8807119,69 62,67.8807119 62,66.5 C62,65.1192881 60.8807119,64 59.5,64 C58.1192881,64 57,65.1192881 57,66.5 C57,67.8807119 58.1192881,69 59.5,69 Z M59.5,71 C57.0147186,71 55,68.9852814 55,66.5 C55,64.0147186 57.0147186,62 59.5,62 C61.9852814,62 64,64.0147186 64,66.5 C64,68.9852814 61.9852814,71 59.5,71 Z" id="Combined-Shape" fill="#BCBCBC"></path>
    </g>
</svg>